<svg width="24" height="24" viewBox="0 0 24 24" fill="none" xmlns="http://www.w3.org/2000/svg">
<path d="M19.0083 4.48486L12.6288 9.19677L13.8152 6.41989L19.0083 4.48486Z" fill="#E17726" stroke="#E17726" stroke-width="0.151515" stroke-linecap="round" stroke-linejoin="round"/>
<path d="M4.29344 4.48486L10.6161 9.24074L9.48657 6.41988L4.29344 4.48486Z" fill="#E27625" stroke="#E27625" stroke-width="0.151515" stroke-linecap="round" stroke-linejoin="round"/>
<path d="M16.7115 15.4102L15.014 17.9986L18.6486 18.9976L19.6898 15.4668L16.7115 15.4102Z" fill="#E27625" stroke="#E27625" stroke-width="0.151515" stroke-linecap="round" stroke-linejoin="round"/>
<path d="M3.61823 15.4668L4.65306 18.9976L8.28132 17.9986L6.59023 15.4102L3.61823 15.4668Z" fill="#E27625" stroke="#E27625" stroke-width="0.151515" stroke-linecap="round" stroke-linejoin="round"/>
<path d="M8.08572 11.0376L7.07611 12.558L10.6728 12.7213L10.5529 8.85754L8.08572 11.0376Z" fill="#E27625" stroke="#E27625" stroke-width="0.151515" stroke-linecap="round" stroke-linejoin="round"/>
<path d="M15.216 11.0376L12.7109 8.81354L12.6289 12.7213L16.2256 12.5579L15.216 11.0376Z" fill="#E27625" stroke="#E27625" stroke-width="0.151515" stroke-linecap="round" stroke-linejoin="round"/>
<path d="M8.28131 17.9986L10.4582 16.9495L8.5842 15.4919L8.28131 17.9986Z" fill="#E27625" stroke="#E27625" stroke-width="0.151515" stroke-linecap="round" stroke-linejoin="round"/>
<path d="M12.8434 16.9495L15.014 17.9986L14.7175 15.4919L12.8434 16.9495Z" fill="#E27625" stroke="#E27625" stroke-width="0.151515" stroke-linecap="round" stroke-linejoin="round"/>
<path d="M15.0141 17.9986L12.8434 16.9495L13.0201 18.3567L13.0012 18.9536L15.0141 17.9986Z" fill="#D5BFB2" stroke="#D5BFB2" stroke-width="0.151515" stroke-linecap="round" stroke-linejoin="round"/>
<path d="M8.28127 17.9986L10.3005 18.9536L10.2878 18.3567L10.4582 16.9495L8.28127 17.9986Z" fill="#D5BFB2" stroke="#D5BFB2" stroke-width="0.151515" stroke-linecap="round" stroke-linejoin="round"/>
<path d="M10.3384 14.5621L8.53369 14.0344L9.80835 13.4501L10.3384 14.5621Z" fill="#233447" stroke="#233447" stroke-width="0.151515" stroke-linecap="round" stroke-linejoin="round"/>
<path d="M12.9633 14.5621L13.4933 13.4501L14.7742 14.0344L12.9633 14.5621Z" fill="#233447" stroke="#233447" stroke-width="0.151515" stroke-linecap="round" stroke-linejoin="round"/>
<path d="M8.28132 17.9986L8.59679 15.4102L6.59023 15.4668L8.28132 17.9986Z" fill="#CC6228" stroke="#CC6228" stroke-width="0.151515" stroke-linecap="round" stroke-linejoin="round"/>
<path d="M14.7048 15.4102L15.014 17.9986L16.7114 15.4668L14.7048 15.4102Z" fill="#CC6228" stroke="#CC6228" stroke-width="0.151515" stroke-linecap="round" stroke-linejoin="round"/>
<path d="M16.2256 12.558L12.6288 12.7213L12.9633 14.5621L13.4933 13.4501L14.7742 14.0344L16.2256 12.558Z" fill="#CC6228" stroke="#CC6228" stroke-width="0.151515" stroke-linecap="round" stroke-linejoin="round"/>
<path d="M8.5337 14.0344L9.80831 13.4501L10.3384 14.5621L10.6728 12.7213L7.0761 12.558L8.5337 14.0344Z" fill="#CC6228" stroke="#CC6228" stroke-width="0.151515" stroke-linecap="round" stroke-linejoin="round"/>
<path d="M7.07611 12.558L8.5842 15.4919L8.53374 14.0344L7.07611 12.558Z" fill="#E27525" stroke="#E27525" stroke-width="0.151515" stroke-linecap="round" stroke-linejoin="round"/>
<path d="M14.7743 14.0344L14.7175 15.4919L16.2256 12.558L14.7743 14.0344Z" fill="#E27525" stroke="#E27525" stroke-width="0.151515" stroke-linecap="round" stroke-linejoin="round"/>
<path d="M10.6728 12.7213L10.3384 14.5621L10.7611 16.7358L10.8558 13.871L10.6728 12.7213Z" fill="#E27525" stroke="#E27525" stroke-width="0.151515" stroke-linecap="round" stroke-linejoin="round"/>
<path d="M12.6289 12.7213L12.4522 13.8647L12.5405 16.7358L12.9633 14.5621L12.6289 12.7213Z" fill="#E27525" stroke="#E27525" stroke-width="0.151515" stroke-linecap="round" stroke-linejoin="round"/>
<path d="M12.9633 14.5621L12.5406 16.7358L12.8434 16.9495L14.7175 15.4919L14.7743 14.0344L12.9633 14.5621Z" fill="#F5841F" stroke="#F5841F" stroke-width="0.151515" stroke-linecap="round" stroke-linejoin="round"/>
<path d="M8.53369 14.0344L8.58421 15.4919L10.4582 16.9495L10.7611 16.7358L10.3384 14.5621L8.53369 14.0344Z" fill="#F5841F" stroke="#F5841F" stroke-width="0.151515" stroke-linecap="round" stroke-linejoin="round"/>
<path d="M13.0011 18.9536L13.0201 18.3567L12.856 18.2185H10.4456L10.2878 18.3567L10.3005 18.9536L8.28127 17.9986L8.98803 18.5766L10.4204 19.563H12.875L14.3136 18.5766L15.014 17.9986L13.0011 18.9536Z" fill="#C0AC9D" stroke="#C0AC9D" stroke-width="0.151515" stroke-linecap="round" stroke-linejoin="round"/>
<path d="M12.8434 16.9495L12.5406 16.7358H10.7611L10.4582 16.9495L10.2879 18.3567L10.4456 18.2185H12.856L13.0201 18.3567L12.8434 16.9495Z" fill="#161616" stroke="#161616" stroke-width="0.151515" stroke-linecap="round" stroke-linejoin="round"/>
<path d="M19.2796 9.5046L19.816 6.90364L19.0083 4.48486L12.8434 9.03972L15.216 11.0375L18.5666 12.0114L19.3049 11.1507L18.983 10.9182L19.4941 10.4533L19.1029 10.1517L19.6141 9.7622L19.2796 9.5046Z" fill="#763E1A" stroke="#763E1A" stroke-width="0.151515" stroke-linecap="round" stroke-linejoin="round"/>
<path d="M3.48572 6.90364L4.02838 9.5046L3.68133 9.7622L4.19875 10.1517L3.80753 10.4533L4.31864 10.9182L3.99683 11.1507L4.7351 12.0114L8.08572 11.0375L10.4582 9.03972L4.2934 4.48486L3.48572 6.90364Z" fill="#763E1A" stroke="#763E1A" stroke-width="0.151515" stroke-linecap="round" stroke-linejoin="round"/>
<path d="M18.5666 12.0114L15.216 11.0375L16.2256 12.5579L14.7175 15.4919L16.7115 15.4667H19.6898L18.5666 12.0114Z" fill="#F5841F" stroke="#F5841F" stroke-width="0.151515" stroke-linecap="round" stroke-linejoin="round"/>
<path d="M8.08567 11.0375L4.73508 12.0114L3.61821 15.4667H6.59021L8.58416 15.4919L7.07608 12.5579L8.08567 11.0375Z" fill="#F5841F" stroke="#F5841F" stroke-width="0.151515" stroke-linecap="round" stroke-linejoin="round"/>
<path d="M12.6289 12.7213L12.8434 9.03972L13.8152 6.41989H9.48653L10.4582 9.03972L10.6728 12.7213L10.7548 13.8772L10.7611 16.7358H12.5406L12.5469 13.8772L12.6289 12.7213Z" fill="#F5841F" stroke="#F5841F" stroke-width="0.151515" stroke-linecap="round" stroke-linejoin="round"/>
</svg>
