<svg width="100" height="100" viewBox="0 0 100 100" fill="none" xmlns="http://www.w3.org/2000/svg">
<g clip-path="url(#clip0)">
<path fill-rule="evenodd" clip-rule="evenodd" d="M32.4757 18.6794C36.8895 14.3557 43.9507 14.3557 48.3645 18.6794L58.8139 28.9156C63.3583 33.3673 63.3583 40.6837 58.8139 45.1354L40.6031 62.9745L53.6635 75.7684C56.1518 78.2059 56.193 82.1991 53.7555 84.6874C51.3179 87.1757 47.3247 87.2169 44.8364 84.7794L13.1964 53.7851C8.652 49.3334 8.65199 42.0169 13.1964 37.5653L32.4757 18.6794ZM31.5902 54.1455L49.0669 37.0255L40.4201 28.5551L22.9434 45.6752L31.5902 54.1455Z" fill="#C8CFD6"/>
<path fill-rule="evenodd" clip-rule="evenodd" d="M58.9654 27.3291C63.3792 23.0053 70.4403 23.0053 74.8541 27.3291L85.3036 37.5652C89.848 42.0169 89.848 49.3333 85.3036 53.785L53.6635 84.7793C51.1752 87.2169 47.182 87.1757 44.7445 84.6874C42.307 82.1991 42.3481 78.2059 44.8364 75.7683L57.8968 62.9745L48.5159 53.785C43.9715 49.3334 43.9715 42.0169 48.5159 37.5652L58.9654 27.3291ZM66.9097 54.1455L75.5566 45.6751L66.9097 37.2048L58.2629 45.6751L66.9097 54.1455Z" fill="#FCFDFD"/>
<path opacity="0.95" d="M58.2579 45.6965L49.0726 36.972L40.2625 45.6245L49.2298 54.5458L58.2579 45.6965Z" fill="#EDEDED"/>
</g>
<defs>
<clipPath id="clip0">
<rect width="100" height="100" fill="white"/>
</clipPath>
</defs>
</svg>
